HIERARCHY
ROOT Hips
{
	OFFSET -3.958830 18.904000 13.208200
	CHANNELS 6 Xposition Yposition Zposition Zrotation Yrotation Xrotation 
	JOINT LHipJoint
	{
		OFFSET 0.000000 0.000000 0.000000
		CHANNELS 3 Zrotation Yrotation Xrotation
		JOINT LeftUpLeg
		{
			OFFSET 1.800000 -1.400000 0.085000
			CHANNELS 3 Zrotation Yrotation Xrotation
			JOINT LeftLeg
			{
				OFFSET 2.215000 -6.000000 0.000000
				CHANNELS 3 Zrotation Yrotation Xrotation
				JOINT LeftFoot
				{
					OFFSET 2.500000 -6.900000 0.000000
					CHANNELS 3 Zrotation Yrotation Xrotation
					JOINT LeftToeBase
					{
						OFFSET 0.200000 -0.500000 1.950000
						CHANNELS 3 Zrotation Yrotation Xrotation
						End Site
						{
							OFFSET 0.000000 0.000000 0.000000
						}
					}
				}
			}
		}
	}
	JOINT RHipJoint
	{
		OFFSET 0.000000 0.000000 0.000000
		CHANNELS 3 Zrotation Yrotation Xrotation
		JOINT RightUpLeg
		{
			OFFSET -1.800000 -1.400000 0.085000
			CHANNELS 3 Zrotation Yrotation Xrotation
			JOINT RightLeg
			{
				OFFSET -2.215000 -6.000000 0.000000
				CHANNELS 3 Zrotation Yrotation Xrotation
				JOINT RightFoot
				{
					OFFSET -2.500000 -6.900000 0.000000
					CHANNELS 3 Zrotation Yrotation Xrotation
					JOINT RightToeBase
					{
						OFFSET -0.200000 -0.500000 1.950000
						CHANNELS 3 Zrotation Yrotation Xrotation
						End Site
						{
							OFFSET 0.000000 0.000000 0.000000
						}
					}
				}
			}
		}
	}
	JOINT LowerBack
	{
		OFFSET 0.000000 0.000000 0.000000
		CHANNELS 3 Zrotation Yrotation Xrotation
		JOINT Spine
		{
			OFFSET -0.087000 1.940000 -0.288900
			CHANNELS 3 Zrotation Yrotation Xrotation
			JOINT Spine1
			{
				OFFSET 0.000000 1.950000 0.060000
				CHANNELS 3 Zrotation Yrotation Xrotation
				JOINT Neck
				{
					OFFSET 0.000000 0.000000 0.000000
					CHANNELS 3 Zrotation Yrotation Xrotation
					JOINT Neck1
					{
						OFFSET 0.000000 1.600000 0.340000
						CHANNELS 3 Zrotation Yrotation Xrotation
						JOINT Head
						{
							OFFSET 0.000000 1.667000 -0.240000
							CHANNELS 3 Zrotation Yrotation Xrotation
							End Site
							{
								OFFSET 0.000000 0.000000 0.000000
							}
						}
					}
				}
				JOINT LeftShoulder
				{
					OFFSET 0.000000 0.000000 0.000000
					CHANNELS 3 Zrotation Yrotation Xrotation
					JOINT LeftArm
					{
						OFFSET 2.700000 1.550000 -0.730000
						CHANNELS 3 Zrotation Yrotation Xrotation
						JOINT LeftForeArm
						{
							OFFSET 5.450000 0.000000 0.000000
							CHANNELS 3 Zrotation Yrotation Xrotation
							JOINT LeftHand
							{
								OFFSET 3.450000 0.000000 0.000000
								CHANNELS 3 Zrotation Yrotation Xrotation
								JOINT LeftHandIndex1
								{
									OFFSET 0.750000 0.000000 0.000000
									CHANNELS 3 Zrotation Yrotation Xrotation
									End Site
									{
										OFFSET 0.000000 0.000000 0.000000
									}
								}
							}
						}
					}
				}
				JOINT RightShoulder
				{
					OFFSET 0.000000 0.000000 0.000000
					CHANNELS 3 Zrotation Yrotation Xrotation
					JOINT RightArm
					{
						OFFSET -2.700000 1.550000 -0.730000
						CHANNELS 3 Zrotation Yrotation Xrotation
						JOINT RightForeArm
						{
							OFFSET -5.450000 0.000000 0.000000
							CHANNELS 3 Zrotation Yrotation Xrotation
							JOINT RightHand
							{
								OFFSET -3.450000 0.000000 0.000000
								CHANNELS 3 Zrotation Yrotation Xrotation
								JOINT RightHandIndex1
								{
									OFFSET -0.750000 0.000000 0.000000
									CHANNELS 3 Zrotation Yrotation Xrotation
									End Site
									{
										OFFSET 0.000000 0.000000 0.000000
									}
								}
							}
						}
					}
				}
			}
		}
	}
}
MOTION
Frames: 7
Frame Time: 0.016667
1.567150 16.915510 -9.425570 2.974842 38.459027 -11.619527 -15.300211 12.805476 3.122394 2.422687 -1.590903 -2.563596 -13.991645 13.448938 33.914756 0.376228 8.373329 1.785835 0.336280 -0.181200 0.372820 18.088852 -11.030170 3.563107 1.869448 -0.306417 -1.018982 11.925841 -5.654040 3.658098 -0.802156 -4.164466 2.936082 -0.216300 0.224410 0.562580 -4.460644 0.033957 -8.585824 23.518003 -4.036656 25.333050 -7.946510 2.163122 13.291190 1.869307 7.360782 -23.987916 16.062497 -13.101255 35.849781 -3.647760 -7.043270 -14.390280 -0.584002 -27.280901 16.693190 -0.815845 15.569603 0.785043 2.191852 -0.584793 -1.405632 -4.135099 2.281605 0.891260 0.016460 0.235860 0.174150 -6.699477 27.441847 14.751260 31.080940 13.223200 -15.154317 38.931037 79.157356 17.704250 1.525596 -2.014353 -0.129780 0.117250 0.116110 -0.201270 
1.483750 16.990130 -9.442770 2.083739 37.031945 -11.204567 -15.235801 12.694265 2.972304 2.010879 -1.156815 -2.000285 -12.773826 11.954133 30.578332 0.176367 7.699141 2.053923 0.282960 -0.235480 0.325150 18.174912 -11.147050 3.605602 1.810073 -0.400175 -1.141894 11.419200 -5.382561 2.075873 -0.764475 -4.181516 2.960246 -0.214420 0.315580 0.558340 -4.657389 0.455835 -8.497875 24.232433 -3.872642 23.959322 -7.763316 1.645988 14.296784 2.012224 7.290771 -22.917712 15.844944 -12.621145 34.013781 -4.510000 -6.654470 -13.354800 0.528102 -25.932717 15.976784 -1.745424 14.415399 0.620214 2.090121 0.010630 -1.464692 -4.247709 2.217324 0.857660 0.087200 0.178590 0.183460 -7.731215 25.738352 14.763375 32.383601 13.035864 -14.404284 40.535668 82.051878 19.386876 1.570929 -1.970162 -0.179550 0.171650 0.155680 -0.194310 
1.408170 17.064020 -9.459740 0.596866 35.388805 -10.804513 -15.131862 12.517780 2.790570 2.086906 -0.819010 -1.828035 -11.488799 10.538051 27.245680 -0.027600 7.063151 2.318798 0.237160 -0.304320 0.294340 18.308481 -11.290082 3.662741 1.970131 -0.426326 -1.441562 10.988041 -5.098373 0.359809 -0.732432 -4.221612 2.965490 -0.220510 0.413840 0.572690 -4.974379 1.040440 -8.408002 26.278468 -3.976761 21.771069 -8.504256 1.218266 15.404457 2.241076 7.127315 -21.871393 15.431955 -11.961257 32.366830 -5.577700 -6.130750 -11.716850 1.887827 -24.528353 15.214192 -2.492898 12.885471 0.470752 1.330054 1.315408 -1.635137 -4.390954 2.140937 0.827710 0.165710 0.114390 0.192800 -9.154244 24.033662 14.880466 34.863556 13.231751 -13.720768 39.171307 84.659160 18.740260 1.594230 -1.935284 -0.228070 0.209130 0.193400 -0.192560 
1.323620 17.136360 -9.479750 -0.392087 33.749542 -10.353839 -15.041556 12.370008 2.657287 2.164643 -0.623717 -1.830509 -10.463977 9.490161 24.668853 -0.158185 6.568297 2.507043 0.218660 -0.329910 0.260090 18.423254 -11.405448 3.690859 1.672713 -0.483173 -1.539213 10.242678 -4.822737 -1.132374 -0.704948 -4.279419 2.955471 -0.212180 0.473270 0.589470 -5.208996 1.490849 -8.320496 27.619702 -4.256770 20.397224 -9.183229 0.784976 16.136102 2.335159 6.728466 -20.746936 14.508388 -10.579100 31.117866 -5.493610 -5.363700 -10.411310 3.242847 -22.827511 14.306326 -3.523894 11.572599 0.205902 0.592900 2.629190 -1.786539 -4.508970 2.137334 0.778230 0.221470 0.060150 0.200560 -10.265966 22.280365 14.733512 36.724865 13.616455 -13.305216 34.866228 86.366795 15.574195 1.589174 -1.945104 -0.238980 0.202700 0.215610 -0.182960 
1.246920 17.194240 -9.499140 -0.744966 31.592010 -9.264707 -14.953696 12.240976 2.596663 1.756003 -0.418944 -1.919923 -9.713048 8.545759 21.818369 -0.291096 6.121988 2.704657 0.172830 -0.389340 0.207390 18.521606 -11.511507 3.700337 0.722660 -0.396659 -2.085937 9.558151 -4.570184 -2.397729 -0.665512 -4.321072 2.952944 -0.215270 0.569640 0.603770 -5.360537 1.856353 -8.248149 28.520652 -4.471443 19.428533 -10.309538 0.733933 15.935949 2.399585 6.169165 -19.685010 13.286873 -9.038281 29.715581 -5.543530 -4.481840 -9.218640 3.907896 -20.651076 13.204836 -3.780293 11.045752 0.079773 0.129475 3.239855 -1.917165 -4.623055 2.108271 0.749110 0.288610 -0.001090 0.215570 -10.844100 20.516621 14.634683 38.384120 13.762504 -12.825643 29.339105 87.976366 11.382242 1.561635 -1.931704 -0.282210 0.228400 0.254350 -0.171710 
1.173710 17.250060 -9.524740 -1.434944 29.792255 -8.301626 -14.900612 12.235269 2.572313 1.589082 -0.327393 -2.262184 -8.643817 7.592837 19.145584 -0.418695 5.685340 2.867368 0.118830 -0.469800 0.172100 18.566119 -11.559831 3.705004 0.039727 -0.226222 -2.843362 8.893166 -4.373836 -3.003916 -0.601911 -4.285922 2.966183 -0.238080 0.613780 0.605160 -5.401123 1.935939 -8.193387 29.763721 -4.750205 18.928461 -11.273507 0.882946 15.167336 2.374390 5.460767 -19.075972 11.758609 -7.893530 28.963827 -5.614480 -3.904880 -8.339090 4.634249 -18.806481 12.185159 -4.690173 10.217720 -0.173601 -0.063607 3.971348 -1.996894 -4.717455 2.093653 0.730800 0.324220 -0.058300 0.189820 -11.513943 19.297814 14.814676 39.852119 12.921238 -12.834841 23.525726 89.631546 6.730851 1.531036 -1.909889 -0.313600 0.223720 0.306510 -0.184360 
1.111120 17.291070 -9.532710 -2.160351 29.080113 -7.186273 -14.855900 12.184164 2.538441 1.421611 -0.288749 -2.579393 -7.316408 6.536984 16.059494 -0.542850 5.227637 3.054833 0.066560 -0.532440 0.117220 18.615672 -11.591332 3.721930 -0.641307 -0.113052 -3.247724 7.951293 -4.125410 -4.146203 -0.562508 -4.302372 2.973424 -0.252080 0.681600 0.609010 -5.491244 2.068124 -8.149545 31.077426 -5.214034 17.573872 -12.500791 0.613711 14.269714 2.275237 4.965190 -18.331942 10.685672 -7.108268 28.207683 -5.554660 -3.664230 -7.443720 5.404573 -16.803548 11.099931 -5.003378 9.287872 -0.341973 -0.640287 4.424328 -2.115462 -4.807084 2.055014 0.708680 0.371190 -0.111060 0.186560 -12.174095 17.652586 14.804195 41.579143 12.472690 -12.702109 -166.322818 89.949304 178.325525 1.476183 -1.840434 -0.346250 0.240030 0.352790 -0.178260 
